<svg width="928" height="434" viewBox="0 0 928 434" fill="none" xmlns="http://www.w3.org/2000/svg">
<g clip-path="url(#clip0)">
<path d="M464 434C720.26 434 928 425.744 928 415.56C928 405.376 720.26 397.12 464 397.12C207.74 397.12 0 405.376 0 415.56C0 425.744 207.74 434 464 434Z" fill="#3F3D56"/>
<path d="M825.896 312.445C827.619 309.095 828.509 305.294 828.475 301.434C828.475 291.485 822.955 283.415 816.112 283.415C809.268 283.415 803.757 291.485 803.757 301.434C803.722 305.294 804.612 309.095 806.335 312.445C804.644 315.81 803.757 319.601 803.757 323.456C803.757 327.312 804.644 331.103 806.335 334.468C804.644 337.831 803.757 341.62 803.757 345.475C803.757 349.329 804.644 353.119 806.335 356.482C804.644 359.846 803.757 363.637 803.757 367.493C803.757 371.349 804.644 375.14 806.335 378.504C804.612 381.854 803.722 385.655 803.757 389.516C803.757 399.465 809.276 407.534 816.112 407.534C822.947 407.534 828.475 399.465 828.475 389.516C828.509 385.655 827.619 381.854 825.896 378.504C827.587 375.14 828.474 371.349 828.474 367.493C828.474 363.637 827.587 359.846 825.896 356.482C827.587 353.119 828.475 349.329 828.475 345.475C828.475 341.62 827.587 337.831 825.896 334.468C827.587 331.103 828.474 327.312 828.474 323.456C828.474 319.601 827.587 315.81 825.896 312.445Z" fill="#3F3D56"/>
<path d="M816.08 297.429C822.904 297.429 828.435 289.362 828.435 279.411C828.435 269.459 822.904 261.392 816.08 261.392C809.257 261.392 803.725 269.459 803.725 279.411C803.725 289.362 809.257 297.429 816.08 297.429Z" fill="#3F3D56"/>
<path d="M816.08 275.407C822.904 275.407 828.435 267.339 828.435 257.388C828.435 247.437 822.904 239.37 816.08 239.37C809.257 239.37 803.725 247.437 803.725 257.388C803.725 267.339 809.257 275.407 816.08 275.407Z" fill="#3F3D56"/>
<path d="M769.822 106.689C768.134 104.296 766.595 101.775 765.218 99.1462L797.694 93.2103L762.568 93.5C759.2 85.336 757.363 76.4924 757.169 67.5104C756.975 58.5284 758.429 49.5968 761.441 41.262L808.558 68.483L765.107 32.9113C769.173 25.0685 774.646 18.2427 781.185 12.8596C787.724 7.47647 795.189 3.65149 803.114 1.62318C811.039 -0.405132 819.254 -0.593279 827.248 1.07046C835.241 2.73419 842.84 6.21413 849.573 11.2933C856.305 16.3724 862.025 22.9418 866.377 30.5918C870.729 38.2419 873.619 46.8084 874.867 55.7573C876.115 64.7062 875.695 73.8455 873.631 82.6052C871.568 91.365 867.906 99.5574 862.874 106.672C865.511 110.396 867.774 114.429 869.623 118.701L827.473 143.104L872.415 126.306C875.57 136.695 876.349 147.797 874.682 158.606C873.014 169.415 868.954 179.59 862.867 188.212C869.738 197.935 874.013 209.616 875.204 221.919C876.394 234.222 874.452 246.649 869.6 257.78C864.747 268.911 857.179 278.297 847.762 284.863C838.345 291.43 827.459 294.912 816.348 294.912C805.238 294.912 794.352 291.43 784.935 284.863C775.518 278.297 767.95 268.911 763.097 257.78C758.244 246.649 756.302 234.222 757.493 221.919C758.683 209.616 762.959 197.935 769.83 188.212C761.622 176.591 757.16 162.235 757.16 147.45C757.16 132.665 761.622 118.31 769.83 106.689H769.822Z" fill="#57B894"/>
<path opacity="0.1" d="M875.568 147.45C875.589 162.239 871.124 176.602 862.898 188.212C869.769 197.935 874.045 209.616 875.235 221.919C876.426 234.222 874.484 246.649 869.631 257.78C864.778 268.911 857.21 278.297 847.793 284.863C838.376 291.429 827.49 294.912 816.38 294.912C805.269 294.912 794.383 291.429 784.966 284.863C775.549 278.297 767.981 268.911 763.128 257.78C758.276 246.649 756.333 234.222 757.524 221.919C758.715 209.616 762.99 197.935 769.861 188.212C761.89 176.998 875.568 140.057 875.568 147.45Z" fill="black"/>
<path d="M776.681 6.14673H151.318C142.426 6.14673 135.218 14.1746 135.218 24.0775V388.629C135.218 398.532 142.426 406.559 151.318 406.559H776.681C785.573 406.559 792.781 398.532 792.781 388.629V24.0775C792.781 14.1746 785.573 6.14673 776.681 6.14673Z" fill="#F2F2F2"/>
<path d="M135.613 25.9039H346.916V406.998H151.713C147.443 406.998 143.347 405.109 140.328 401.747C137.309 398.384 135.613 393.823 135.613 389.068V25.9039Z" fill="#00C5FF"/>
<path d="M792.781 24.0775V34.2547H135.218V24.0775C135.218 21.7232 135.635 19.392 136.444 17.217C137.253 15.0421 138.439 13.066 139.934 11.4016C141.429 9.73731 143.204 8.41737 145.158 7.51722C147.111 6.61707 149.204 6.15437 151.318 6.15552H776.681C778.795 6.15437 780.889 6.61707 782.842 7.51722C784.795 8.41737 786.57 9.73731 788.065 11.4016C789.561 13.066 790.747 15.0421 791.556 17.217C792.365 19.392 792.781 21.7232 792.781 24.0775Z" fill="#3F3D56"/>
<path d="M152.17 25.9039C154.783 25.9039 156.901 23.545 156.901 20.6353C156.901 17.7255 154.783 15.3667 152.17 15.3667C149.557 15.3667 147.439 17.7255 147.439 20.6353C147.439 23.545 149.557 25.9039 152.17 25.9039Z" fill="#00C5FF"/>
<path d="M163.997 25.9039C166.609 25.9039 168.727 23.545 168.727 20.6353C168.727 17.7255 166.609 15.3667 163.997 15.3667C161.384 15.3667 159.266 17.7255 159.266 20.6353C159.266 23.545 161.384 25.9039 163.997 25.9039Z" fill="#00C5FF"/>
<path d="M175.823 25.9039C178.436 25.9039 180.554 23.545 180.554 20.6353C180.554 17.7255 178.436 15.3667 175.823 15.3667C173.211 15.3667 171.093 17.7255 171.093 20.6353C171.093 23.545 173.211 25.9039 175.823 25.9039Z" fill="#00C5FF"/>
<path opacity="0.3" d="M753.958 81.7686H482.323C481.783 81.7686 481.346 82.256 481.346 82.8574V90.3388C481.346 90.9401 481.783 91.4276 482.323 91.4276H753.958C754.498 91.4276 754.936 90.9401 754.936 90.3388V82.8574C754.936 82.256 754.498 81.7686 753.958 81.7686Z" fill="#00C5FF"/>
<path d="M750.016 100.208H694.415C693.875 100.208 693.438 100.696 693.438 101.297V121.072C693.438 121.673 693.875 122.161 694.415 122.161H750.016C750.556 122.161 750.994 121.673 750.994 121.072V101.297C750.994 100.696 750.556 100.208 750.016 100.208Z" fill="#00C5FF"/>
<path opacity="0.3" d="M753.958 199.223H482.323C481.783 199.223 481.346 199.71 481.346 200.312V207.793C481.346 208.394 481.783 208.882 482.323 208.882H753.958C754.498 208.882 754.936 208.394 754.936 207.793V200.312C754.936 199.71 754.498 199.223 753.958 199.223Z" fill="#00C5FF"/>
<path d="M750.016 217.663H694.415C693.875 217.663 693.438 218.15 693.438 218.752V238.527C693.438 239.128 693.875 239.615 694.415 239.615H750.016C750.556 239.615 750.994 239.128 750.994 238.527V218.752C750.994 218.15 750.556 217.663 750.016 217.663Z" fill="#00C5FF"/>
<path opacity="0.3" d="M753.958 318.644H482.323C481.783 318.644 481.346 319.132 481.346 319.733V327.215C481.346 327.816 481.783 328.303 482.323 328.303H753.958C754.498 328.303 754.936 327.816 754.936 327.215V319.733C754.936 319.132 754.498 318.644 753.958 318.644Z" fill="#00C5FF"/>
<path d="M750.016 337.084H694.415C693.875 337.084 693.438 337.572 693.438 338.173V357.948C693.438 358.549 693.875 359.037 694.415 359.037H750.016C750.556 359.037 750.994 358.549 750.994 357.948V338.173C750.994 337.572 750.556 337.084 750.016 337.084Z" fill="#00C5FF"/>
<path d="M421.968 262.903C443.531 262.903 461.012 243.434 461.012 219.419C461.012 195.404 443.531 175.936 421.968 175.936C400.405 175.936 382.924 195.404 382.924 219.419C382.924 243.434 400.405 262.903 421.968 262.903Z" fill="#3F3D56"/>
<path d="M456.423 242.355C456.38 242.46 456.325 242.557 456.257 242.645C455.832 243.428 455.372 244.187 454.878 244.919C450.548 251.595 444.599 256.758 437.729 259.803C437.051 260.119 436.357 260.409 435.655 260.681C435.005 260.102 434.404 259.458 433.858 258.758C432.229 256.698 431.138 254.18 430.704 251.479C429.665 251.702 428.608 251.814 427.55 251.812C427.445 251.821 427.34 251.821 427.235 251.812C419.114 251.654 412.144 245.033 409.029 235.585L408.903 235.181C407.004 229.026 406.79 222.382 408.288 216.091C408.328 215.88 408.391 215.67 408.446 215.468C411.111 205.273 418.144 197.844 426.509 197.256C426.769 197.256 427.03 197.256 427.298 197.256C427.566 197.256 427.724 197.256 427.936 197.256H428.315C438.912 197.686 447.443 209.102 447.837 223.379C450.002 224.963 451.717 227.203 452.78 229.835C453.843 232.466 454.21 235.381 453.837 238.237C454.894 239.444 455.767 240.835 456.423 242.355Z" fill="#192534"/>
<path opacity="0.1" d="M456.257 242.645C455.832 243.428 455.372 244.187 454.878 244.919C454.306 243.778 453.598 242.729 452.772 241.802C452.863 241.077 452.911 240.347 452.914 239.615C452.914 237.102 452.353 234.628 451.281 232.416C450.209 230.204 448.659 228.324 446.772 226.945C446.339 212.368 437.437 200.724 426.533 200.724C418.743 200.724 411.986 206.643 408.588 215.336C408.501 215.564 408.422 215.784 408.328 216.021C408.044 216.776 407.792 217.54 407.539 218.339C407.817 216.734 408.205 215.155 408.698 213.615L408.809 213.492C411.844 204.175 418.625 197.563 426.588 197.168C426.848 197.168 427.109 197.168 427.377 197.168C427.645 197.168 427.802 197.168 428.015 197.168H428.394C438.841 197.871 447.206 209.233 447.608 223.362C449.779 224.941 451.499 227.179 452.565 229.812C453.631 232.445 453.998 235.362 453.624 238.219C454.731 239.508 455.623 241.007 456.257 242.645Z" fill="black"/>
<path d="M415.116 230.176C415.214 231.065 415.122 231.968 414.848 232.81C414.383 234.013 413.271 235.093 413.579 236.323C413.735 236.708 413.971 237.048 414.267 237.313C414.562 237.578 414.91 237.763 415.282 237.85C418.68 239.133 422.378 238.369 425.973 238.544C427.171 238.661 428.374 238.708 429.576 238.685C430.786 238.655 431.956 238.2 432.919 237.385C431.052 236.375 429.288 235.141 427.66 233.706C427.265 233.379 426.907 232.999 426.596 232.573C425.928 231.369 425.606 229.965 425.674 228.551C425.674 227.155 425.674 225.759 425.674 224.372C423.103 224.372 420.541 224.328 417.97 224.328C417.182 224.328 414.635 224.108 414.344 225.101C414.202 225.592 414.754 227.041 414.84 227.594C414.973 228.449 415.065 229.311 415.116 230.176Z" fill="#A0616A"/>
<path opacity="0.1" d="M415.116 230.176C415.214 231.065 415.122 231.968 414.848 232.81C414.383 234.013 413.271 235.093 413.579 236.323C413.735 236.708 413.971 237.048 414.267 237.313C414.562 237.578 414.91 237.763 415.282 237.85C418.68 239.133 422.378 238.369 425.973 238.544C427.171 238.661 428.374 238.708 429.576 238.685C430.786 238.655 431.956 238.2 432.919 237.385C431.052 236.375 429.288 235.141 427.66 233.706C427.265 233.379 426.907 232.999 426.596 232.573C425.928 231.369 425.606 229.965 425.674 228.551C425.674 227.155 425.674 225.759 425.674 224.372C423.103 224.372 420.541 224.328 417.97 224.328C417.182 224.328 414.635 224.108 414.344 225.101C414.202 225.592 414.754 227.041 414.84 227.594C414.973 228.449 415.065 229.311 415.116 230.176Z" fill="black"/>
<path d="M420.399 228.911C425.402 228.911 429.458 224.394 429.458 218.822C429.458 213.25 425.402 208.733 420.399 208.733C415.396 208.733 411.34 213.25 411.34 218.822C411.34 224.394 415.396 228.911 420.399 228.911Z" fill="#A0616A"/>
<path d="M437.579 248.089C437.579 248.361 437.532 248.651 437.493 248.967C437.199 250.604 436.769 252.206 436.207 253.753C435.875 254.802 435.474 255.824 435.009 256.809C434.67 257.485 434.22 258.108 433.858 258.767L433.337 259.706C433.006 260.34 432.723 261.004 432.494 261.691C430.973 262.125 429.426 262.438 427.866 262.63C426.34 262.834 424.805 262.937 423.269 262.938C415.03 262.938 406.144 260.558 399.844 255.693C399.844 255.693 400.767 254.982 400.633 254.815C400.633 254.411 400.593 254.016 400.593 253.612C400.584 252.572 400.736 251.539 401.043 250.557C401.311 249.615 401.779 248.76 402.407 248.063C403.195 247.185 404.252 246.64 405.095 245.797C406.173 244.636 406.936 243.16 407.295 241.538C407.492 240.836 407.634 240.09 407.768 239.37C407.888 238.385 408.132 237.424 408.493 236.516C408.544 236.4 408.602 236.288 408.667 236.182C408.787 235.957 408.93 235.748 409.093 235.559C409.897 234.685 410.837 233.983 411.868 233.486C412.727 232.995 413.934 232.608 414.533 233.425V233.486C414.729 233.989 414.895 234.505 415.03 235.032C415.511 236.138 416.851 236.279 417.939 236.252C421.787 236.163 425.627 235.805 429.435 235.181L431.28 234.847C432.612 234.601 433.542 235.901 434.291 237.166C436.231 240.423 437.871 244.173 437.579 248.089Z" fill="#00C5FF"/>
<path opacity="0.1" d="M409.913 248.774C409.069 248.985 408.58 249.933 408.186 250.794C407.438 252.208 407.11 253.849 407.248 255.483C407.225 256.124 407.286 256.766 407.429 257.388C407.574 258.015 407.93 258.555 408.422 258.899" stroke="black" stroke-miterlimit="10"/>
<path d="M432.533 214.368C433.217 211.389 429.376 207.723 423.955 206.18C418.534 204.636 413.585 205.8 412.901 208.779C412.218 211.758 416.058 215.424 421.479 216.967C426.9 218.51 431.849 217.347 432.533 214.368Z" fill="#192534"/>
<path opacity="0.1" d="M421.984 214.853C417.166 213.483 413.603 210.463 413.311 207.688C413.087 208 412.926 208.363 412.838 208.75C412.152 211.727 415.992 215.389 421.408 216.934C426.825 218.48 431.776 217.312 432.447 214.3C432.523 213.967 432.544 213.622 432.51 213.281C431.067 215.494 426.707 216.196 421.984 214.853Z" fill="black"/>
<path d="M437.816 255.246C437.816 256.773 437.816 258.293 437.729 259.803C437.051 260.119 436.357 260.409 435.656 260.681C434.622 261.081 433.569 261.415 432.502 261.682C430.981 262.116 429.434 262.43 427.874 262.622C427.598 258.986 426.975 255.483 427.282 251.795C427.538 248.969 428.41 246.257 429.821 243.892C430.374 242.856 431.167 242.004 432.115 241.424C432.589 241.144 433.125 241.02 433.66 241.067C434.195 241.113 434.706 241.329 435.135 241.688C435.672 242.312 436.048 243.085 436.223 243.927C436.755 245.574 437.182 247.262 437.501 248.976C437.501 249.16 437.556 249.362 437.579 249.556C437.798 251.442 437.877 253.345 437.816 255.246Z" fill="#A0616A"/>
<path d="M461.004 338.841C461.022 346.113 459.395 353.273 456.273 359.66C455.926 360.363 455.564 361.074 455.154 361.776C455.111 361.881 455.055 361.979 454.988 362.066C454.563 362.85 454.102 363.609 453.608 364.341C450.613 368.967 446.82 372.884 442.452 375.861L442.223 376.037C440.788 376.997 439.3 377.856 437.768 378.61C437.343 378.82 436.901 379.022 436.46 379.224C436.018 379.426 435.608 379.611 435.167 379.769C434.946 379.874 434.709 379.962 434.481 380.05C434.454 380.046 434.428 380.046 434.402 380.05C433.921 380.243 433.424 380.41 432.935 380.577L432.565 380.673C432.123 380.822 431.682 380.945 431.24 381.051C429.717 381.485 428.167 381.799 426.604 381.99C425.089 382.195 423.565 382.297 422.039 382.298C421.881 382.298 421.724 382.298 421.566 382.298C419.45 382.29 417.339 382.073 415.258 381.648L414.88 381.578C414.494 381.507 414.091 381.42 413.721 381.314L412.988 381.13C412.21 380.94 411.441 380.705 410.685 380.427C409.145 379.913 407.636 379.288 406.168 378.557L406.002 378.478C403.852 377.393 401.796 376.091 399.86 374.588C399.695 374.48 399.537 374.36 399.387 374.228C393.936 369.9 389.576 364.084 386.726 357.339C383.876 350.593 382.631 343.144 383.112 335.708C383.592 328.272 385.781 321.099 389.469 314.877C393.157 308.655 398.22 303.594 404.17 300.18C410.121 296.766 416.76 295.113 423.45 295.381C430.14 295.649 436.655 297.829 442.37 301.71C448.086 305.592 452.809 311.045 456.086 317.546C459.363 324.046 461.083 331.377 461.083 338.832L461.004 338.841Z" fill="#3F3D56"/>
<path d="M431.414 328.365C431.32 330.74 430.408 332.984 428.865 334.629C427.323 336.273 425.27 337.191 423.135 337.191C421 337.191 418.947 336.273 417.405 334.629C415.862 332.984 414.949 330.74 414.856 328.365C414.856 328.215 414.856 328.066 414.856 327.926C414.856 325.48 415.728 323.135 417.281 321.406C418.834 319.677 420.939 318.706 423.135 318.706C425.331 318.706 427.436 319.677 428.989 321.406C430.541 323.135 431.414 325.48 431.414 327.926C431.406 328.066 431.414 328.215 431.414 328.365Z" fill="#192534"/>
<path opacity="0.1" d="M431.414 328.365C431.32 330.74 430.408 332.984 428.865 334.629C427.323 336.273 425.27 337.191 423.135 337.191C421 337.191 418.947 336.273 417.405 334.629C415.862 332.984 414.949 330.74 414.856 328.365C414.856 328.216 414.856 328.066 414.856 327.926C417.192 325.797 420.117 324.634 423.135 324.634C426.153 324.634 429.078 325.797 431.414 327.926C431.406 328.066 431.414 328.216 431.414 328.365Z" fill="black"/>
<path d="M423.127 354.585C430.351 354.585 436.207 348.063 436.207 340.017C436.207 331.972 430.351 325.449 423.127 325.449C415.903 325.449 410.047 331.972 410.047 340.017C410.047 348.063 415.903 354.585 423.127 354.585Z" fill="#192534"/>
<path d="M415.203 326.328C415.205 324.093 415.934 321.934 417.257 320.253C418.579 318.572 420.405 317.482 422.394 317.187C421.222 317.01 420.031 317.114 418.898 317.493C417.766 317.872 416.72 318.516 415.83 319.382C414.94 320.248 414.226 321.317 413.737 322.515C413.249 323.714 412.996 325.015 412.996 326.332C412.996 327.648 413.249 328.95 413.737 330.148C414.226 331.347 414.94 332.415 415.83 333.282C416.72 334.148 417.766 334.792 418.898 335.171C420.031 335.549 421.222 335.654 422.394 335.477C420.403 335.182 418.577 334.091 417.254 332.408C415.932 330.725 415.203 328.564 415.203 326.328Z" fill="#192534"/>
<path d="M408.367 345.936C406.863 344.455 405.892 342.417 405.635 340.199C405.379 337.982 405.854 335.736 406.972 333.879C406.693 334.154 406.43 334.447 406.183 334.757C405.433 335.66 404.852 336.722 404.475 337.878C404.098 339.035 403.933 340.264 403.989 341.493C404.045 342.722 404.321 343.926 404.801 345.034C405.281 346.143 405.955 347.133 406.784 347.947C407.612 348.761 408.579 349.382 409.626 349.774C410.674 350.166 411.781 350.321 412.883 350.229C413.984 350.137 415.059 349.801 416.042 349.24C417.025 348.679 417.898 347.905 418.609 346.963C418.85 346.657 419.074 346.334 419.279 345.997C417.762 347.46 415.82 348.26 413.813 348.249C411.806 348.238 409.871 347.416 408.367 345.936Z" fill="#192534"/>
<path d="M416.283 358.492C415.602 358.642 414.944 358.899 414.328 359.256C413.24 360.134 413.279 361.891 413.603 363.322C414.344 366.588 416.157 369.723 418.933 371.058C420.651 371.764 422.482 372.063 424.31 371.936C426.289 371.936 428.528 371.637 429.758 369.899C430.312 368.982 430.69 367.948 430.87 366.861C431.477 364.226 432.092 361.504 431.871 358.782C430.672 358.896 429.332 358.975 428.386 358.132C427.44 357.289 427.227 355.682 426.809 354.348C426.764 354.133 426.656 353.942 426.502 353.803C426.329 353.716 426.137 353.686 425.95 353.716C424.691 353.776 423.43 353.717 422.181 353.54C421.392 353.426 419.484 352.521 418.901 353.285C418.475 353.838 418.743 355.524 418.412 356.306C418.205 356.809 417.91 357.262 417.545 357.637C417.179 358.012 416.75 358.303 416.283 358.492Z" fill="#FFC1C7"/>
<path opacity="0.05" d="M416.283 358.492C415.602 358.642 414.944 358.899 414.328 359.256C413.24 360.134 413.279 361.891 413.603 363.322C414.344 366.588 416.157 369.723 418.933 371.058C420.651 371.764 422.482 372.063 424.31 371.936C426.289 371.936 428.528 371.637 429.758 369.899C430.312 368.982 430.69 367.948 430.87 366.861C431.477 364.226 432.092 361.504 431.871 358.782C430.672 358.896 429.332 358.975 428.386 358.132C427.44 357.289 427.227 355.682 426.809 354.348C426.764 354.133 426.656 353.942 426.502 353.803C426.329 353.716 426.137 353.686 425.95 353.716C424.691 353.776 423.43 353.717 422.181 353.54C421.392 353.426 419.484 352.521 418.901 353.285C418.475 353.838 418.743 355.524 418.412 356.306C418.205 356.809 417.91 357.262 417.545 357.637C417.179 358.012 416.75 358.303 416.283 358.492Z" fill="black"/>
<path d="M422.946 357.237C427.997 357.237 432.092 352.676 432.092 347.051C432.092 341.425 427.997 336.865 422.946 336.865C417.895 336.865 413.8 341.425 413.8 347.051C413.8 352.676 417.895 357.237 422.946 357.237Z" fill="#FFC1C7"/>
<path d="M442.996 369.117C442.933 369.205 442.87 369.311 442.799 369.398L442.412 369.96C440.465 372.56 438.888 375.477 437.737 378.61C437.311 378.82 436.87 379.022 436.428 379.224C435.987 379.426 435.577 379.611 435.135 379.769C434.914 379.874 434.678 379.962 434.449 380.05C434.423 380.046 434.396 380.046 434.37 380.05C433.889 380.243 433.393 380.41 432.904 380.577L432.533 380.673C432.092 380.822 431.65 380.945 431.209 381.051C429.685 381.485 428.136 381.799 426.573 381.99C425.058 382.195 423.533 382.297 422.007 382.298C421.85 382.298 421.692 382.298 421.534 382.298C419.419 382.29 417.308 382.073 415.227 381.648L414.848 381.578C414.462 381.507 414.06 381.42 413.689 381.314L412.956 381.13C412.178 380.94 411.41 380.705 410.654 380.427C410.865 378.956 411.454 377.583 412.349 376.476C410.575 374.114 407.658 373.183 405.773 370.953C405.609 370.74 405.456 370.518 405.316 370.285C405.218 370.117 405.136 369.937 405.072 369.75C405.015 369.602 404.981 369.444 404.969 369.284C404.91 368.961 404.886 368.631 404.898 368.301C404.851 365.807 404.953 362.962 406.688 361.399C407.54 360.735 408.498 360.258 409.511 359.994C411.271 359.38 412.985 358.611 414.635 357.693C414.787 358.085 414.887 358.499 414.935 358.923C415.093 359.941 415.077 361.013 415.29 362.022C415.703 363.823 416.704 365.389 418.097 366.413C419.486 367.426 421.068 368.067 422.717 368.283C424.341 368.547 425.634 367.607 427.164 366.966C427.841 366.725 428.467 366.33 429.001 365.807C429.692 364.919 430.06 363.776 430.034 362.602C430.034 361.443 429.915 360.284 429.979 359.089C429.98 358.968 429.993 358.848 430.018 358.729C430.02 358.424 430.108 358.127 430.269 357.88C430.43 357.633 430.657 357.448 430.917 357.351C431.212 357.324 431.509 357.385 431.776 357.526L434.725 358.782C436.003 359.275 437.234 359.907 438.399 360.67C439.687 361.602 440.77 362.845 441.566 364.308C442.362 365.771 442.85 367.415 442.996 369.117Z" fill="#00C5FF"/>
<path opacity="0.1" d="M415.187 381.657L414.809 381.586C414.423 381.516 414.02 381.428 413.65 381.323L412.917 381.138C412.139 380.949 411.37 380.714 410.614 380.436C409.074 379.922 407.565 379.297 406.097 378.566C405.358 375.891 405.091 373.082 405.308 370.294C405.404 369.098 405.626 367.919 405.971 366.782C407.626 368.538 410.449 367.546 412.325 368.95C412.834 369.352 413.25 369.881 413.539 370.496C414.065 371.621 414.421 372.834 414.596 374.087C414.714 374.772 414.825 375.466 414.919 376.16C414.919 376.283 414.919 376.379 414.919 376.485C414.919 376.59 414.919 376.704 414.919 376.818C414.982 377.31 415.038 377.819 415.061 378.32C415.187 379.453 415.187 380.541 415.187 381.657Z" fill="black"/>
<path d="M414.809 381.586C414.422 381.516 414.02 381.428 413.65 381.323L412.917 381.138C412.139 380.949 411.37 380.714 410.614 380.436C409.074 379.922 407.565 379.297 406.097 378.566L405.931 378.487C405.026 375.533 404.684 372.402 404.93 369.293C405.043 368.17 405.259 367.064 405.576 365.991C407.232 367.747 410.055 366.773 411.931 368.178C412.654 368.756 413.203 369.564 413.508 370.496C413.814 371.398 414.044 372.33 414.194 373.279C414.367 374.307 414.533 375.334 414.643 376.379C414.668 376.524 414.681 376.671 414.683 376.818C414.683 376.915 414.683 377.038 414.683 377.134C414.683 377.231 414.683 377.38 414.683 377.512C414.832 378.855 414.825 380.225 414.809 381.586Z" fill="#00C5FF"/>
<path opacity="0.1" d="M442.192 376.037C440.756 376.997 439.268 377.856 437.737 378.61C437.311 378.82 436.87 379.022 436.428 379.224C435.987 379.426 435.577 379.611 435.135 379.769C434.914 379.874 434.678 379.962 434.449 380.05C434.423 380.046 434.396 380.046 434.37 380.05C433.889 380.243 433.393 380.41 432.904 380.577L432.533 380.673C432.533 379.892 432.533 379.084 432.612 378.293C432.667 377.67 432.73 377.047 432.809 376.423C432.809 376.309 432.809 376.195 432.849 376.081C432.856 376.008 432.856 375.934 432.849 375.861C432.943 375.264 433.046 374.658 433.148 374.061C433.312 372.805 433.669 371.59 434.205 370.47C434.5 369.867 434.919 369.349 435.427 368.959C437.303 367.554 440.157 368.511 441.734 366.79C442.045 367.811 442.259 368.864 442.373 369.934C442.587 371.967 442.525 374.024 442.192 376.037Z" fill="black"/>
<path d="M442.42 375.861L442.192 376.037C440.756 376.997 439.268 377.856 437.737 378.61C437.311 378.82 436.87 379.022 436.428 379.224C435.987 379.426 435.577 379.611 435.135 379.769C434.914 379.874 434.678 379.962 434.449 380.05C434.423 380.046 434.396 380.046 434.37 380.05C433.889 380.243 433.393 380.41 432.904 380.577C432.904 379.54 432.904 378.513 432.983 377.486C432.983 377.222 432.983 376.95 433.046 376.686C433.046 376.572 433.046 376.441 433.046 376.326C433.046 376.212 433.046 376.133 433.046 376.054C433.164 375.106 433.306 374.184 433.479 373.253C433.629 372.303 433.859 371.371 434.165 370.47C434.47 369.538 435.019 368.73 435.742 368.151C437.619 366.746 440.473 367.704 442.05 365.965C442.389 367.068 442.611 368.212 442.712 369.372C442.924 371.539 442.826 373.729 442.42 375.861Z" fill="#00C5FF"/>
<path d="M422.764 345.619C428.826 345.619 433.739 341.971 433.739 337.471C433.739 332.97 428.826 329.322 422.764 329.322C416.703 329.322 411.789 332.97 411.789 337.471C411.789 341.971 416.703 345.619 422.764 345.619Z" fill="#192534"/>
<path opacity="0.05" d="M413.642 380.094C413.642 380.278 413.642 380.471 413.642 380.673C413.642 380.875 413.642 381.059 413.642 381.253C413.639 381.276 413.639 381.3 413.642 381.323L412.909 381.139C412.897 380.984 412.897 380.828 412.909 380.673C412.908 379.859 413.064 379.054 413.368 378.313C413.671 377.572 414.114 376.912 414.667 376.379C414.739 376.294 414.821 376.22 414.911 376.16C415.335 375.777 415.815 375.48 416.33 375.282C416.804 375.078 417.306 374.971 417.813 374.965C417.881 374.957 417.95 374.957 418.018 374.965C418.144 374.957 418.27 374.957 418.396 374.965H418.136C416.929 375.107 415.808 375.731 414.982 376.722C414.89 376.816 414.808 376.922 414.738 377.038C414.107 377.912 413.725 378.976 413.642 380.094Z" fill="black"/>
<path d="M421.668 380.673C421.667 381.223 421.609 381.771 421.495 382.306C419.379 382.299 417.268 382.082 415.187 381.657L414.809 381.586C414.423 381.516 414.02 381.428 413.65 381.323V381.253C413.65 381.059 413.65 380.875 413.65 380.673C413.65 380.471 413.65 380.278 413.65 380.094C413.717 378.915 414.077 377.781 414.691 376.818C414.761 376.697 414.843 376.586 414.935 376.485C415.303 375.974 415.776 375.57 416.315 375.308C416.729 375.088 417.181 374.974 417.639 374.974C417.692 374.966 417.745 374.966 417.797 374.974C417.905 374.966 418.013 374.966 418.12 374.974C420.115 375.352 421.668 377.758 421.668 380.673Z" fill="#00C5FF"/>
<path opacity="0.05" d="M435.135 379.769C434.914 379.874 434.678 379.962 434.449 380.05C434.336 378.792 433.841 377.615 433.046 376.713L432.809 376.449C432.022 375.662 431.037 375.163 429.986 375.018H429.726C429.847 375.01 429.968 375.01 430.089 375.018C430.16 375.01 430.231 375.01 430.302 375.018C430.811 375.032 431.314 375.138 431.792 375.334C432.171 375.479 432.534 375.674 432.872 375.914C432.96 375.964 433.04 376.029 433.109 376.107C433.647 376.538 434.103 377.084 434.451 377.712C434.798 378.341 435.031 379.04 435.135 379.769Z" fill="black"/>
<path d="M434.449 380.05C434.423 380.046 434.396 380.046 434.37 380.05C433.889 380.243 433.392 380.41 432.904 380.577L432.533 380.673C432.092 380.822 431.65 380.945 431.208 381.051C429.685 381.485 428.136 381.799 426.572 381.99C426.492 381.548 426.453 381.098 426.454 380.647C426.454 377.732 428.031 375.326 430.01 374.992C430.115 374.983 430.22 374.983 430.325 374.992C430.375 374.983 430.426 374.983 430.475 374.992C430.939 374.99 431.397 375.104 431.816 375.326C432.208 375.519 432.566 375.79 432.872 376.125C432.959 376.197 433.038 376.279 433.109 376.37C433.9 377.404 434.37 378.695 434.449 380.05Z" fill="#00C5FF"/>
<path opacity="0.1" d="M422.764 344.812C416.883 344.812 412.081 341.387 411.797 337.076C411.797 337.207 411.797 337.339 411.797 337.48C411.797 341.984 416.717 345.628 422.78 345.628C428.843 345.628 433.755 341.984 433.755 337.48C433.755 337.339 433.755 337.207 433.755 337.076C433.44 341.387 428.638 344.812 422.764 344.812Z" fill="black"/>
<path d="M382.924 101.974C382.911 109.242 384.537 116.399 387.655 122.785C388.01 123.496 388.372 124.207 388.774 124.901C388.82 125.006 388.878 125.103 388.948 125.191C389.382 125.967 389.853 126.718 390.359 127.438C391.997 129.976 393.885 132.3 395.989 134.367C396.379 134.783 396.79 135.176 397.219 135.543C398.569 136.8 400.003 137.942 401.508 138.959L401.744 139.135C403.18 140.092 404.664 140.954 406.191 141.716L407.508 142.322C407.942 142.524 408.352 142.717 408.801 142.875C409.022 142.972 409.25 143.06 409.487 143.148H409.597C410.076 143.341 410.564 143.516 411.064 143.674L411.426 143.771C411.868 143.92 412.317 144.052 412.759 144.149C413.358 144.324 413.949 144.474 414.564 144.596C415.487 144.798 416.441 144.974 417.387 145.097C418.902 145.299 420.426 145.398 421.952 145.396H422.417C424.533 145.381 426.644 145.161 428.725 144.737C428.852 144.723 428.979 144.699 429.103 144.667C429.49 144.596 429.892 144.509 430.262 144.403C430.515 144.351 430.743 144.289 430.996 144.219C431.784 144.026 432.573 143.797 433.298 143.525C433.763 143.358 434.22 143.2 434.678 143.025C435.6 142.665 436.523 142.278 437.406 141.839C437.544 141.788 437.678 141.727 437.808 141.655L437.981 141.567C439.148 140.982 440.284 140.329 441.387 139.609C442.326 139.012 443.24 138.362 444.123 137.677H444.178C444.322 137.584 444.459 137.478 444.588 137.361C450.045 133.037 454.412 127.223 457.268 120.477C460.124 113.731 461.374 106.28 460.897 98.8401C460.42 91.4006 458.233 84.2228 454.545 77.9969C450.857 71.771 445.793 66.7064 439.84 63.2901C433.887 59.8738 427.245 58.2206 420.552 58.4896C413.86 58.7585 407.342 60.9406 401.625 64.8259C395.909 68.7112 391.186 74.169 387.911 80.6747C384.636 87.1804 382.918 94.5151 382.924 101.974Z" fill="#3F3D56"/>
<path d="M430.633 119.202C431.209 119.766 431.609 120.519 431.776 121.353C430.641 121.687 429.482 121.063 428.426 120.475C425.145 118.761 421.682 117.519 418.121 116.778C417.835 116.749 417.563 116.634 417.332 116.445C417.153 116.176 417.061 115.848 417.069 115.514C417.078 115.179 417.187 114.858 417.379 114.601C417.774 114.144 418.515 114.205 419.051 114.179C421.188 114.057 423.324 114.439 425.319 115.298C427.315 116.157 429.126 117.476 430.633 119.167V119.202Z" fill="#00C5FF"/>
<path d="M419.098 115.707C418.862 116.365 418.509 116.963 418.061 117.465C417.612 117.968 417.078 118.364 416.488 118.631C415.85 118.886 415.164 118.93 414.517 119.132C414.186 119.208 413.876 119.37 413.611 119.603C413.345 119.836 413.132 120.135 412.988 120.475C412.901 120.782 412.861 121.102 412.869 121.423C412.767 124.453 412.688 127.57 413.776 130.38C414.714 132.786 416.433 134.683 418.136 136.483C420.123 138.599 422.228 140.742 424.846 141.69C426.375 142.243 428.181 142.305 429.45 141.207C429.948 140.726 430.381 140.167 430.736 139.547C431.621 138.256 432.362 136.849 432.943 135.359C434.023 132.268 433.661 128.808 433.282 125.515C433.28 125.32 433.212 125.132 433.093 124.988C432.929 124.874 432.73 124.837 432.541 124.883C431.864 124.96 431.182 124.798 430.592 124.419C430.002 124.041 429.534 123.466 429.253 122.776C429.09 122.149 429.029 121.495 429.072 120.844L429.127 117.086C429.154 116.682 429.111 116.277 429.001 115.891C428.691 115.265 428.191 114.782 427.59 114.53C425.747 113.503 423.826 112.66 421.85 112.01C420.982 111.729 420.32 111.255 419.934 112.291C419.548 113.327 419.548 114.618 419.098 115.707Z" fill="#FBBEBE"/>
<path opacity="0.1" d="M419.098 115.707C418.862 116.365 418.509 116.963 418.061 117.465C417.612 117.968 417.078 118.364 416.488 118.631C415.85 118.886 415.164 118.93 414.517 119.132C414.186 119.208 413.876 119.37 413.611 119.603C413.345 119.836 413.132 120.135 412.988 120.475C412.901 120.782 412.861 121.102 412.869 121.423C412.767 124.453 412.688 127.57 413.776 130.38C414.714 132.786 416.433 134.683 418.136 136.483C420.123 138.599 422.228 140.742 424.846 141.69C426.375 142.243 428.181 142.305 429.45 141.207C429.948 140.726 430.381 140.167 430.736 139.547C431.621 138.256 432.362 136.849 432.943 135.359C434.023 132.268 433.661 128.808 433.282 125.515C433.28 125.32 433.212 125.132 433.093 124.988C432.929 124.874 432.73 124.837 432.541 124.883C431.864 124.96 431.182 124.798 430.592 124.419C430.002 124.041 429.534 123.466 429.253 122.776C429.09 122.149 429.029 121.495 429.072 120.844L429.127 117.086C429.154 116.682 429.111 116.277 429.001 115.891C428.691 115.265 428.191 114.782 427.59 114.53C425.747 113.503 423.826 112.66 421.85 112.01C420.982 111.729 420.32 111.255 419.934 112.291C419.548 113.327 419.548 114.618 419.098 115.707Z" fill="black"/>
<path d="M428.228 118.754C433.915 118.754 438.525 113.62 438.525 107.286C438.525 100.952 433.915 95.8181 428.228 95.8181C422.541 95.8181 417.931 100.952 417.931 107.286C417.931 113.62 422.541 118.754 428.228 118.754Z" fill="#FBBEBE"/>
<path d="M414.549 144.649C415.471 144.851 416.425 145.027 417.371 145.15C418.886 145.351 420.411 145.451 421.937 145.448H422.402C424.517 145.434 426.628 145.213 428.709 144.79C428.837 144.776 428.963 144.752 429.088 144.719C429.474 144.649 429.876 144.561 430.247 144.456C430.499 144.403 430.728 144.342 430.98 144.272C431.769 144.078 432.557 143.85 433.282 143.578C433.747 143.411 434.205 143.253 434.662 143.077C435.585 142.717 436.507 142.331 437.39 141.892C437.163 141.111 436.976 140.317 436.83 139.512C436.576 137.795 436.476 136.053 436.531 134.314C436.531 132.918 436.586 131.53 436.531 130.143C436.551 129.018 436.404 127.896 436.097 126.824C435.941 126.288 435.69 125.792 435.36 125.366C435.029 124.939 434.626 124.59 434.173 124.339C432.998 123.759 431.232 123.461 430.073 124.11C429.941 124.19 429.814 124.281 429.695 124.383C429.443 124.618 429.247 124.92 429.127 125.261C428.749 126.314 428.339 127.377 427.976 128.431C427.742 129.165 427.433 129.866 427.054 130.521C426.481 131.381 425.683 132.023 424.77 132.358C423.856 132.693 422.872 132.705 421.952 132.391C421.837 132.349 421.724 132.299 421.613 132.242C420.036 131.53 418.594 129.994 416.946 130.406C416.49 130.542 416.068 130.79 415.711 131.134C415.355 131.478 415.073 131.908 414.888 132.391C414.865 132.441 414.846 132.494 414.833 132.549C414.501 133.467 414.309 134.441 414.265 135.429C414.027 138.504 414.122 141.6 414.549 144.649Z" fill="#F2F2F2"/>
<path d="M395.989 134.393C396.379 134.81 396.79 135.203 397.219 135.57C398.569 136.827 400.003 137.968 401.508 138.985L401.744 139.161C403.18 140.118 404.665 140.981 406.191 141.743L407.508 142.348C407.942 142.55 408.352 142.744 408.801 142.902C409.022 142.998 409.25 143.086 409.487 143.174H409.597C410.076 143.367 410.565 143.543 411.064 143.701L411.427 143.797C411.868 143.947 412.317 144.078 412.759 144.175C413.358 144.351 413.95 144.5 414.565 144.623C415.487 144.825 416.441 145 417.387 145.123C418.902 145.325 420.427 145.425 421.952 145.422H422.417C424.533 145.407 426.644 145.187 428.725 144.763C428.852 144.749 428.979 144.726 429.103 144.693C429.49 144.623 429.892 144.535 430.263 144.43C430.515 144.377 430.743 144.315 430.996 144.245C431.784 144.052 432.573 143.824 433.298 143.551C433.763 143.385 434.221 143.227 434.678 143.051C435.6 142.691 436.523 142.305 437.406 141.866C437.544 141.815 437.678 141.753 437.808 141.681L437.981 141.593C439.148 141.008 440.284 140.355 441.387 139.635C442.162 137.336 442.82 134.991 443.359 132.61C443.355 132.564 443.355 132.517 443.359 132.47C442.129 130.038 441.041 127.509 439.818 125.076C439.471 124.161 438.912 123.363 438.199 122.765C437.486 122.167 436.644 121.789 435.758 121.669C434.904 121.355 434.015 121.172 433.117 121.125C432.606 121.072 432.1 120.975 431.603 120.835C430.578 120.58 429.443 120.335 429.064 120.835C429.048 120.848 429.034 120.865 429.025 120.885C429.015 120.905 429.01 120.927 429.009 120.949C428.867 121.539 428.932 122.167 429.19 122.705C429.364 123.259 429.592 123.838 429.711 124.312C429.781 124.539 429.821 124.775 429.829 125.015C429.857 126.043 429.825 127.073 429.734 128.097C429.513 129.59 428.772 130.907 428.425 132.356C428.268 133.041 428.189 133.752 428.086 134.446C427.867 136.012 427.5 137.549 426.99 139.029C426.899 139.344 426.763 139.64 426.588 139.907C425.942 140.785 424.87 140.452 423.852 140.285C423.111 139.582 423.151 138.336 423.064 137.282C422.847 135.512 422.361 133.796 421.629 132.206L421.361 131.574C420.573 129.757 419.784 127.948 419.043 126.121C418.089 123.856 417.103 121.265 417.892 118.921C418.12 118.218 418.491 117.595 418.743 116.919C418.784 116.819 418.819 116.717 418.846 116.611C418.918 116.352 418.958 116.084 418.964 115.812C418.992 115.57 418.974 115.324 418.912 115.089C418.849 114.855 418.744 114.638 418.601 114.451C418.559 114.38 418.506 114.317 418.444 114.267C418.417 114.236 418.385 114.212 418.349 114.197C418.09 114.03 417.798 113.936 417.499 113.92C417.2 113.905 416.902 113.97 416.63 114.109C416.319 114.235 416.016 114.384 415.724 114.557C414.176 115.528 412.683 116.604 411.253 117.779C410.834 118.057 410.507 118.479 410.323 118.982C410.289 119.316 410.239 119.647 410.173 119.975C409.952 120.598 409.282 120.782 408.706 120.923C406.326 121.535 404.083 122.682 402.115 124.293C400.146 125.904 398.494 127.945 397.258 130.292C396.84 131.047 396.512 131.858 396.28 132.707C396.14 133.259 396.043 133.823 395.989 134.393Z" fill="#00C5FF"/>
<path d="M432.762 100.814C431.366 102.404 429.135 102.465 427.14 102.43L427.203 101.552L424.404 102.667C425.132 102.066 425.754 101.322 426.241 100.472C426.047 100.311 425.814 100.216 425.572 100.198C425.33 100.181 425.089 100.243 424.877 100.375C424.458 100.647 424.107 101.034 423.86 101.499C423.065 102.825 422.559 104.34 422.383 105.923C422.206 107.505 422.364 109.111 422.843 110.614C422.558 110.77 422.241 110.84 421.925 110.817C421.608 110.794 421.302 110.678 421.038 110.482C420.512 110.081 420.108 109.511 419.879 108.849C419.713 108.428 419.54 107.971 419.145 107.804C418.975 107.758 418.796 107.776 418.636 107.855C418.476 107.935 418.345 108.071 418.262 108.243C418.097 108.584 418.03 108.974 418.073 109.358C418.128 110.236 418.72 111.115 418.862 111.993C419.003 112.871 420.17 113.573 419.555 114.162C418.835 114.464 418.082 114.661 417.316 114.75C417.164 114.699 417.026 114.608 416.913 114.484C416.801 114.36 416.717 114.207 416.67 114.039C416.047 112.511 416.268 110.728 415.881 109.104C415.523 107.814 414.974 106.6 414.257 105.512C414.084 105.18 413.878 104.87 413.642 104.59C413.394 104.388 413.189 104.127 413.043 103.826C412.94 103.51 413.137 103.045 413.437 103.106C412.948 102.578 412.421 102.097 411.86 101.666C412.412 100.893 412.948 100.103 413.437 99.3129C413.618 99.0319 413.808 98.6894 413.674 98.3821C413.597 98.2388 413.489 98.1206 413.358 98.0396L411.963 96.9859C411.963 96.2483 413.279 96.5205 413.484 95.8268C413.535 95.6438 413.535 95.4478 413.484 95.2648L412.995 93.2803L414.856 94.2199C415.071 94.3578 415.318 94.4219 415.566 94.4043C416.055 94.3253 416.291 93.6842 416.354 93.131C416.304 92.5777 416.369 92.0188 416.543 91.4978C417.387 91.4978 418.231 91.4978 419.067 91.4978C419.121 91.0282 419.011 90.5531 418.759 90.1719L424.972 89.7855C426.028 89.6516 427.097 89.7349 428.126 90.0314C428.454 90.2036 428.812 90.2936 429.174 90.2948C429.529 90.2948 429.892 89.8821 429.789 89.4957C430.721 90.0814 431.573 90.8117 432.32 91.6646C432.519 91.9334 432.763 92.157 433.038 92.3232C433.177 92.4034 433.335 92.4353 433.491 92.415C433.647 92.3946 433.794 92.3229 433.913 92.209C434.086 92.0071 434.165 91.6471 434.418 91.6295C434.67 91.6119 434.701 91.77 434.796 91.9017C435.151 92.4101 435.441 92.9718 435.655 93.5701C436.102 93.5025 436.539 93.3727 436.956 93.1837C436.762 93.4151 436.635 93.7071 436.592 94.0208C436.55 94.3345 436.595 94.655 436.72 94.9399C436.925 95.5282 437.303 96.0288 437.556 96.5908C437.804 97.1985 437.971 97.8434 438.052 98.505C438.178 99.3304 438.178 100.375 437.524 100.779C437.214 100.898 436.879 100.919 436.559 100.838C436.239 100.758 435.945 100.579 435.711 100.323C434.205 99.1285 433.929 99.4797 432.762 100.814Z" fill="#192534"/>
<path d="M397.219 135.57C398.569 136.827 400.003 137.968 401.508 138.985L401.744 139.161C403.18 140.118 404.665 140.981 406.191 141.743L407.508 142.349C407.942 142.55 408.352 142.744 408.801 142.902C409.022 142.998 409.25 143.086 409.487 143.174C409.211 142.296 409.03 141.418 408.785 140.54C408.134 138.194 406.972 136.064 405.403 134.34C404.047 132.83 401.886 130.626 399.884 131.961C399.273 132.419 398.74 132.992 398.307 133.655C397.922 134.144 397.594 134.684 397.329 135.262C397.29 135.341 397.258 135.447 397.219 135.57Z" fill="#00C5FF"/>
<path d="M434.709 143.069C435.632 142.709 436.554 142.322 437.437 141.883C437.575 141.832 437.709 141.771 437.839 141.699L438.013 141.611C439.18 141.026 440.315 140.373 441.419 139.653C442.357 139.056 443.272 138.406 444.155 137.721H444.21C444.139 136.742 444.139 135.758 444.21 134.779C444.255 134.451 444.237 134.115 444.155 133.796C444.045 133.543 443.896 133.314 443.713 133.12C443.597 132.99 443.489 132.853 443.39 132.707C442.499 131.592 441.774 130.389 440.236 130.564C438.699 130.74 437.374 132.215 436.728 133.857C436.657 134.015 436.599 134.18 436.554 134.349C436.115 135.874 435.772 137.433 435.529 139.012C435.324 139.986 435.064 140.926 434.875 141.901C434.828 142.261 434.757 142.665 434.709 143.069Z" fill="#00C5FF"/>
<path d="M256.978 401.783L256.631 401.993L256.978 401.783Z" fill="url(#paint0_linear)"/>
<path d="M208.544 354.357C205.5 364.121 209.056 379.971 210.704 387.039C211.796 392.153 212.519 397.357 212.864 402.599C216.573 403.302 220.368 403.207 224.045 402.318L221.38 387.751C223.28 379.119 221.38 356.06 221.38 356.06C221.38 356.06 225.692 347.147 226.11 333.563C226.481 320.199 229.438 315.878 229.532 315.738C235.627 319.25 243.377 357.193 243.377 357.193C242.739 366.387 243.503 380.533 246.042 388.172C247.582 393.025 248.231 398.173 247.95 403.311C248.443 403.705 249.008 403.975 249.604 404.103C250.2 404.23 250.814 404.211 251.404 404.048C255.03 403.398 259.383 399.912 259.383 399.912C259.383 399.912 257.987 358.642 256.97 357.052C255.953 355.463 256.97 346.585 256.97 346.585L255.314 332.149C255.314 332.149 255.567 307.677 253.154 303.436C251.072 299.765 250.591 293.329 250.497 291.634C250.497 291.371 250.497 291.221 250.497 291.221L246.823 286.313C246.823 286.313 211.256 283.345 208.583 286.313C207.929 287.042 207.527 288.701 207.282 290.791C206.549 297.21 207.393 307.677 207.393 307.677C207.393 307.677 208.457 315.457 209.987 323.377C210.901 328.135 210.901 333.055 209.987 337.813C210.473 343.38 209.983 348.998 208.544 354.357Z" fill="#575A89"/>
<path d="M210.736 416.394C212.313 418.73 221.664 417.738 223.248 417.009C224.218 416.57 224.147 414.533 223.887 412.443C223.721 411.108 223.477 409.747 223.374 408.755C223.122 406.208 224.163 401.045 224.163 401.045C224.163 401.045 222.066 403.521 221.561 401.045C221.443 400.573 221.212 400.145 220.892 399.808C220.573 399.471 220.177 399.237 219.748 399.131C218.66 398.763 217.49 398.845 216.452 399.359C214.796 400.149 212.044 401.853 212.51 404.153C213.203 407.402 210.728 412.056 210.728 412.056C210.28 412.679 210.036 413.454 210.036 414.252C210.036 415.05 210.28 415.824 210.728 416.447L210.736 416.394Z" fill="#CBCEDA"/>
<path opacity="0.1" d="M210.736 416.394C212.312 418.73 221.663 417.738 223.248 417.009C224.218 416.57 224.147 414.533 223.887 412.443C222.886 412.961 221.175 413.4 218.368 413.101C217.705 413.034 217.039 413.011 216.373 413.031C214.352 413.138 212.326 413.094 210.31 412.899C210.084 413.469 210.005 414.097 210.08 414.714C210.155 415.331 210.382 415.912 210.736 416.394Z" fill="black"/>
<path opacity="0.1" d="M243.322 357.193C242.683 366.386 243.448 380.533 245.987 388.172C247.527 393.025 248.176 398.173 247.895 403.31C248.388 403.705 248.953 403.975 249.549 404.103C250.145 404.23 250.759 404.211 251.349 404.048C250.56 398.086 247.32 372.375 245.222 352.065C243.705 337.997 239.057 324.575 231.7 313.016L229.477 315.738C235.572 319.276 243.322 357.193 243.322 357.193Z" fill="black"/>
<path d="M214.552 208.504L216.129 216.996L223.729 231.212L233.096 226.76C233.096 226.76 245.829 211.903 237.827 209.778C236.867 209.553 235.961 209.104 235.17 208.46C234.484 207.852 233.938 207.07 233.577 206.18C233.217 205.29 233.052 204.317 233.096 203.341C233.158 201.236 233.6 199.166 234.397 197.256L218.005 191.54C218.676 193.939 219.07 196.423 219.18 198.933C219.306 203.903 217.642 206.353 216.286 207.521C215.772 207.974 215.183 208.308 214.552 208.504Z" fill="#FBBEBE"/>
<path opacity="0.1" d="M218.005 191.54C218.676 193.939 219.07 196.423 219.18 198.933C219.475 199.331 219.794 199.706 220.134 200.057C222.531 202.617 225.722 204.049 229.043 204.052C230.404 204.056 231.756 203.815 233.049 203.341C233.111 201.236 233.553 199.166 234.35 197.256L218.005 191.54Z" fill="black"/>
<path d="M216.097 189.195C216.096 192.051 216.855 194.844 218.279 197.219C219.703 199.595 221.728 201.447 224.097 202.54C226.466 203.633 229.074 203.92 231.589 203.362C234.104 202.805 236.415 201.429 238.227 199.408C240.04 197.388 241.274 194.814 241.773 192.013C242.272 189.211 242.014 186.307 241.031 183.669C240.047 181.031 238.384 178.777 236.25 177.193C234.116 175.608 231.608 174.764 229.043 174.768C227.341 174.76 225.653 175.127 224.079 175.85C222.504 176.572 221.074 177.634 219.87 178.976C218.666 180.317 217.713 181.911 217.065 183.665C216.418 185.419 216.089 187.299 216.097 189.195Z" fill="#FBBEBE"/>
<path opacity="0.1" d="M214.552 208.504L216.129 216.996L223.729 231.212L233.096 226.76C233.096 226.76 245.829 211.903 237.827 209.778C236.867 209.553 235.961 209.104 235.17 208.461C236.612 212.851 230.652 222.089 230.652 222.089C229.958 223.221 228.365 222.51 228.365 222.51C224.518 221.86 217.445 209.558 216.294 207.512C215.779 207.969 215.186 208.306 214.552 208.504Z" fill="black"/>
<path opacity="0.1" d="M207.211 290.765C209.466 291.335 221.947 294.418 226.678 293.645C231.89 292.767 242.013 292.231 242.013 292.231C242.013 292.231 248.463 292.617 250.442 291.608C250.442 291.344 250.442 291.195 250.442 291.195L246.768 286.286C246.768 286.286 211.201 283.318 208.528 286.286C207.858 287.042 207.456 288.701 207.211 290.765Z" fill="black"/>
<path d="M230.62 222.51C230.62 222.51 237.322 212.175 234.791 208.144L246.113 213.316C246.113 213.316 252.925 212.394 255.385 223.722C255.779 225.606 255.923 227.543 255.811 229.473C255.744 232.471 256.385 235.436 257.672 238.07C260.471 244.296 259.832 258.582 254.116 260.022C248.4 261.463 246.366 260.725 246.366 260.725C246.366 260.725 247.154 286.611 250.434 289.588C253.714 292.565 242.013 291.854 242.013 291.854C242.013 291.854 231.89 292.415 226.678 293.267C221.466 294.119 206.864 290.291 206.864 290.291C206.864 290.291 209.025 279.402 209.782 272.465C210.539 265.528 212.328 250.776 212.328 250.776L199.366 231.23C199.366 231.23 197.08 219.419 205.083 214.186C213.085 208.952 216.121 207.661 216.121 207.661C216.121 207.661 224.163 222.247 228.357 222.958C228.334 222.94 229.926 223.652 230.62 222.51Z" fill="#3F3D56"/>
<path opacity="0.1" d="M245.482 226.611C245.482 226.611 245.609 231.282 244.844 233.126C244.079 234.97 241.288 245.147 241.288 245.147H247.635C247.635 245.147 244.205 241.047 244.481 239.062C244.757 237.078 245.482 226.611 245.482 226.611Z" fill="black"/>
<path d="M226.678 261.84C226.678 261.84 240.704 258.02 242.013 254.763C243.322 251.505 246.925 244.225 246.925 244.225L245.443 242.004L238.623 247.966C238.623 247.966 230.494 255.184 226.678 255.869C222.862 256.554 226.678 261.84 226.678 261.84Z" fill="#FBBEBE"/>
<path opacity="0.05" d="M226.678 261.84C226.678 261.84 240.704 258.02 242.013 254.763C243.322 251.505 246.925 244.225 246.925 244.225L245.443 242.004L238.623 247.966C238.623 247.966 230.494 255.184 226.678 255.869C222.862 256.554 226.678 261.84 226.678 261.84Z" fill="black"/>
<path d="M214.552 243.453V251.926H215.774C221.816 251.926 227.758 253.639 233.041 256.905L235.335 258.319L235.95 258.705L239.892 248.827L236.21 245.147H236.021C235.114 245.244 231.219 245.613 229.572 244.989C227.924 244.366 226.055 242.513 221.427 243.83C219.156 244.48 217.209 247.343 215.001 246.465L214.552 243.453Z" fill="#FBBEBE"/>
<path opacity="0.1" d="M202.291 228.033L199.753 231.212V238.957C199.753 238.957 201.913 263.289 208.773 265.976C215.632 268.663 227.877 264.422 227.877 264.422C227.877 264.422 231.03 255.088 229.556 254.517C228.082 253.946 216.483 250.539 216.483 250.539C216.483 250.539 216.641 236.27 214.118 232.029C214.118 232.029 215.774 218.725 210.058 218.444C204.341 218.163 202.291 228.033 202.291 228.033Z" fill="black"/>
<path d="M201.913 228.033L199.366 231.212V238.957C199.366 238.957 201.527 263.289 208.386 265.976C215.246 268.663 227.466 264.422 227.466 264.422C227.466 264.422 230.62 255.088 229.154 254.517C227.687 253.946 216.073 250.539 216.073 250.539C216.073 250.539 216.239 236.27 213.708 232.029C213.708 232.029 215.356 218.725 209.64 218.444C203.923 218.163 201.913 228.033 201.913 228.033Z" fill="#3F3D56"/>
<path opacity="0.1" d="M219.653 195.324C219.542 194.395 219.642 193.45 219.945 192.576C220.105 192.145 220.388 191.785 220.749 191.55C221.111 191.316 221.532 191.219 221.947 191.276C223.035 191.557 223.524 193.138 224.573 193.515C225.035 193.618 225.514 193.543 225.933 193.302C226.351 193.061 226.684 192.669 226.875 192.189C227.24 191.215 227.391 190.159 227.317 189.107C227.317 187.931 227.317 186.745 227.317 185.595C227.317 184.445 227.356 182.917 228.066 181.907C228.957 180.651 231.038 180.098 232.426 180.151C233.351 180.159 234.238 180.557 234.909 181.266C235.249 181.644 235.66 181.934 236.113 182.113C236.566 182.292 237.049 182.357 237.527 182.302C237.949 182.231 238.345 182.028 238.669 181.717C238.992 181.406 239.23 181 239.356 180.546C239.352 180.531 239.352 180.516 239.356 180.502C238.275 178.916 236.911 177.596 235.35 176.626C233.789 175.656 232.065 175.056 230.285 174.864C228.506 174.672 226.71 174.892 225.011 175.511C223.312 176.13 221.746 177.134 220.412 178.46C219.078 179.785 218.005 181.404 217.261 183.214C216.516 185.024 216.116 186.986 216.085 188.977C216.055 190.968 216.394 192.944 217.083 194.781C217.772 196.619 218.794 198.277 220.087 199.653C219.866 198.221 219.721 196.775 219.653 195.324Z" fill="black"/>
<path d="M237.543 181.88C237.965 181.807 238.359 181.604 238.683 181.293C239.006 180.983 239.245 180.578 239.372 180.124C239.475 179.668 239.451 179.176 239.569 178.728C239.869 177.613 240.933 177.033 241.643 176.19C243.078 174.496 242.983 171.712 241.966 169.684C241.178 168.042 239.601 166.663 237.905 166.979C236.881 167.181 235.99 167.998 234.949 168.068C233.945 167.99 232.973 167.64 232.118 167.049C229.915 165.938 227.438 165.693 225.093 166.356C224.372 166.516 223.704 166.892 223.162 167.445C222.793 167.958 222.451 168.495 222.137 169.051C220.946 170.737 218.825 171.062 216.941 171.44C215.056 171.817 212.92 172.652 212.297 174.68C211.887 176.015 212.297 177.472 212.518 178.869C212.602 179.157 212.585 179.471 212.47 179.747C212.179 180.291 211.437 180.063 210.893 180.195C209.829 180.44 209.553 181.951 209.514 183.198C209.466 184.594 209.435 185.99 209.411 187.386C209.344 188.035 209.417 188.692 209.624 189.303C209.831 189.914 210.166 190.461 210.602 190.899L214.796 196.51C216.657 199.003 218.628 201.901 218.257 205.115C219.133 205.554 220.181 204.702 220.473 203.675C220.67 202.616 220.621 201.519 220.331 200.487C219.992 198.666 219.77 196.82 219.669 194.964C219.558 194.035 219.658 193.09 219.96 192.216C220.12 191.783 220.404 191.421 220.768 191.186C221.131 190.951 221.554 190.856 221.971 190.916C223.059 191.197 223.548 192.769 224.597 193.155C225.058 193.257 225.537 193.181 225.956 192.94C226.374 192.699 226.706 192.308 226.899 191.829C227.263 190.855 227.415 189.799 227.34 188.747V185.235C227.34 183.953 227.38 182.6 228.089 181.547C228.98 180.291 231.062 179.747 232.449 179.791C233.373 179.807 234.258 180.204 234.933 180.906C235.276 181.274 235.688 181.552 236.139 181.721C236.591 181.889 237.07 181.944 237.543 181.88Z" fill="#3F3D56"/>
<path opacity="0.1" d="M234.618 226.26L230.675 244.463C230.675 244.463 227.506 244.436 234.618 226.26Z" fill="black"/>
<path opacity="0.1" d="M221.025 223.221C221.025 223.221 226.237 232.722 224.179 242.539L223.209 242.619C223.209 242.619 224.967 238.079 221.025 223.221Z" fill="black"/>
<path opacity="0.1" d="M217.721 276.979C217.721 276.979 211.327 274.625 210.862 280.087C210.862 280.087 212.068 276.338 217.721 276.979Z" fill="black"/>
<path opacity="0.1" d="M236.21 245.569C236.21 245.569 237.48 255.474 235.193 259.434C238.781 260.848 242.592 261.425 246.389 261.129L247.177 245.569H236.21Z" fill="black"/>
<path opacity="0.1" d="M235.351 258.319L235.966 258.705L239.908 248.827L236.226 245.147H236.029C236.076 245.622 237.101 254.13 235.351 258.319Z" fill="black"/>
<path d="M236.21 245.147C236.21 245.147 237.48 255.052 235.193 259.013C238.782 260.421 242.592 260.998 246.389 260.707L250.836 245.147H236.21Z" fill="#3F3D56"/>
<path d="M247.178 410.37C247.251 411.076 247.533 411.735 247.98 412.242C248.427 412.75 249.013 413.077 249.646 413.172C253.091 413.751 261.401 415.209 263.498 416.324C266.171 417.738 276.713 416.745 277.217 415.332C277.289 415.05 277.31 414.755 277.279 414.464C277.248 414.173 277.165 413.892 277.036 413.637C276.677 412.771 276.081 412.055 275.333 411.591C275.08 411.441 274.816 411.314 274.545 411.213C272.558 410.476 268.813 408.913 267.796 407.271C267.796 407.271 263.12 402.713 261.788 400.246C261.537 399.761 261.183 399.353 260.756 399.057C260.33 398.762 259.845 398.588 259.343 398.551C258.232 398.499 256.978 399.122 256.489 401.835C256.489 401.835 250.395 405.708 248.747 402.31C248.747 402.31 248.486 407.525 247.477 408.957C247.214 409.365 247.106 409.874 247.178 410.37Z" fill="#CBCEDA"/>
<path opacity="0.1" d="M247.178 410.37C247.251 411.076 247.533 411.735 247.98 412.242C248.427 412.75 249.013 413.077 249.645 413.171C253.091 413.751 261.401 415.209 263.498 416.324C266.171 417.738 276.713 416.745 277.217 415.332C277.289 415.05 277.31 414.755 277.279 414.464C277.247 414.173 277.165 413.892 277.036 413.637C276.677 412.771 276.081 412.055 275.333 411.591C273.614 412.864 269.814 414.111 261.409 412.645C253.398 411.257 249.432 409.887 247.501 408.965C247.231 409.368 247.115 409.873 247.178 410.37Z" fill="black"/>
<g opacity="0.1">
<path opacity="0.1" d="M212.533 179.035C212.533 179.035 212.533 178.992 212.533 178.974C212.289 177.924 212.16 176.845 212.147 175.76C212.208 176.637 212.321 177.508 212.486 178.368C212.544 178.584 212.56 178.812 212.533 179.035Z" fill="black"/>
<path opacity="0.1" d="M219.945 192.277C219.745 192.79 219.638 193.342 219.629 193.902C219.573 193.132 219.681 192.359 219.945 191.645C220.105 191.213 220.389 190.852 220.753 190.617C221.116 190.382 221.538 190.287 221.955 190.345C223.043 190.626 223.532 192.207 224.581 192.584C225.043 192.688 225.522 192.612 225.941 192.371C226.359 192.13 226.692 191.738 226.883 191.259C227.248 190.285 227.399 189.228 227.324 188.176C227.324 187 227.324 185.814 227.324 184.664C227.324 183.514 227.364 181.986 228.073 180.976C228.964 179.72 231.046 179.167 232.434 179.22C233.358 179.228 234.246 179.626 234.917 180.335C235.257 180.714 235.668 181.003 236.121 181.182C236.574 181.361 237.057 181.426 237.535 181.371C237.958 181.301 238.354 181.098 238.677 180.788C239.001 180.477 239.239 180.07 239.364 179.615C239.467 179.158 239.443 178.667 239.561 178.219C239.861 177.104 240.925 176.524 241.635 175.681C242.305 174.864 242.686 173.803 242.707 172.696C242.761 173.35 242.693 174.009 242.509 174.633C242.325 175.257 242.027 175.832 241.635 176.322C240.925 177.2 239.861 177.745 239.561 178.851C239.443 179.308 239.467 179.791 239.364 180.247C239.238 180.702 239 181.108 238.676 181.419C238.353 181.729 237.957 181.932 237.535 182.003C237.056 182.059 236.572 181.994 236.119 181.813C235.666 181.632 235.255 181.34 234.917 180.958C234.244 180.253 233.358 179.856 232.434 179.843C231.046 179.791 228.964 180.344 228.073 181.599C227.364 182.609 227.332 184.005 227.324 185.287C227.317 186.569 227.324 187.65 227.324 188.8C227.399 189.849 227.247 190.902 226.883 191.873C226.694 192.355 226.362 192.749 225.943 192.991C225.524 193.232 225.043 193.306 224.581 193.199C223.516 192.822 223.043 191.25 221.955 190.969C221.537 190.908 221.113 191.003 220.749 191.24C220.385 191.477 220.102 191.842 219.945 192.277Z" fill="black"/>
<path opacity="0.1" d="M209.506 188.387C209.739 189.114 210.107 189.778 210.586 190.336L214.78 195.947C216.546 198.31 218.415 201.04 218.273 204.061C218.147 201.295 216.42 198.793 214.78 196.58L210.586 190.969C210.151 190.531 209.815 189.984 209.608 189.373C209.401 188.762 209.328 188.105 209.395 187.456C209.395 187.771 209.432 188.084 209.506 188.387Z" fill="black"/>
<path opacity="0.1" d="M220.457 203.113C220.526 202.865 220.569 202.608 220.583 202.349C220.617 202.819 220.574 203.292 220.457 203.745C220.165 204.772 219.125 205.624 218.241 205.176C218.266 204.973 218.28 204.767 218.281 204.562C218.742 204.687 219.228 204.605 219.636 204.334C220.043 204.063 220.338 203.624 220.457 203.113Z" fill="black"/>
</g>
<path opacity="0.1" d="M262.663 401.537C262.663 401.537 261.338 404.171 256.529 401.844L262.663 401.537Z" fill="black"/>
<path opacity="0.1" d="M221.987 402.16C221.987 402.16 217.839 407.604 212.612 403.916L221.987 402.16Z" fill="black"/>
<path opacity="0.1" d="M209.916 337.813C209.916 337.813 212.841 339.85 212.943 341.018C213.046 342.186 211.43 340.14 211.43 340.14L209.916 337.813Z" fill="black"/>
<path opacity="0.1" d="M208.757 353.452C209.775 354.399 211.043 354.951 212.368 355.024C214.56 355.129 214.378 358.308 212.943 357.36C211.461 356.177 210.061 354.871 208.757 353.452Z" fill="black"/>
<path opacity="0.1" d="M208.197 355.489C208.197 355.489 209.608 363.19 210.751 361.706L208.197 355.489Z" fill="black"/>
<path d="M65.6695 403.714C68.0348 398.876 65.3462 392.949 62.2871 388.637C59.2279 384.326 55.4986 379.856 55.5774 374.333C55.6957 366.43 63.2253 361.759 69.2412 357.57C73.7081 354.465 77.8266 350.777 81.5094 346.585C83.0503 344.971 84.3258 343.069 85.2781 340.966C86.5239 337.875 86.4845 334.362 86.4056 330.982C86.1428 319.701 85.6435 308.435 84.9076 297.184" stroke="#3F3D56" stroke-width="4" stroke-miterlimit="10"/>
<path d="M96.348 296.569C96.2642 294.505 95.7145 292.497 94.7499 290.732C93.7852 288.967 92.4367 287.502 90.8289 286.471L88.3532 291.924L88.4241 285.32C86.1798 284.59 83.7853 284.673 81.5857 285.556C79.3862 286.439 77.4952 288.077 76.1853 290.234C74.8755 292.391 74.2144 294.955 74.2975 297.557C74.3806 300.16 75.2035 302.665 76.6476 304.713C78.0916 306.761 80.0823 308.246 82.3326 308.952C84.583 309.659 86.9767 309.552 89.1688 308.646C91.3608 307.74 93.238 306.082 94.5297 303.912C95.8214 301.741 96.4608 299.17 96.3559 296.569H96.348Z" fill="#57B894"/>
<path d="M76.6132 379.979C75.4525 382.485 73.5537 384.47 71.2352 385.602C68.9168 386.734 66.3194 386.944 63.8784 386.197C61.4374 385.449 59.3012 383.791 57.8278 381.498C56.3544 379.205 55.6333 376.418 55.7853 373.604C55.9374 370.79 56.9534 368.119 58.663 366.04C60.3727 363.961 62.6721 362.599 65.1759 362.184C67.6797 361.768 70.2357 362.323 72.4156 363.757C74.5955 365.19 76.2668 367.414 77.1493 370.057L70.2346 376.318L77.8431 374.36C77.8403 376.315 77.4187 378.242 76.6132 379.979Z" fill="#57B894"/>
<path d="M71.1493 356.051C68.3998 356.267 65.6772 355.33 63.5168 353.424C61.3564 351.518 59.9145 348.78 59.4747 345.75C59.0349 342.72 59.629 339.616 61.1401 337.049C62.6512 334.481 64.9701 332.637 67.6407 331.877L67.5776 336.953L70.0849 331.429C71.5367 331.35 72.9883 331.591 74.3563 332.139C75.7242 332.686 76.9817 333.529 78.0564 334.619C79.1311 335.709 80.0019 337.025 80.6188 338.491C81.2357 339.956 81.5866 341.543 81.6513 343.161C81.7161 344.583 81.556 346.007 81.1783 347.367C80.5133 349.789 79.1931 351.922 77.398 353.477C75.6029 355.031 73.4205 355.93 71.1493 356.051Z" fill="#57B894"/>
<path d="M98.0116 336.145C96.3128 336.216 94.6222 335.848 93.0718 335.072C91.5213 334.295 90.1529 333.131 89.0731 331.668C87.9933 330.206 87.2314 328.486 86.8468 326.641C86.4621 324.797 86.4652 322.879 86.8557 321.036C87.2462 319.194 88.0136 317.476 89.098 316.018C90.1824 314.56 91.5546 313.401 93.1075 312.63C94.6604 311.86 96.3521 311.499 98.0507 311.577C99.7493 311.654 101.409 312.168 102.9 313.077L100.945 319.048L104.974 314.746C107.128 316.943 108.413 320.003 108.545 323.254C108.598 324.396 108.505 325.54 108.269 326.653C107.717 329.261 106.417 331.598 104.567 333.31C102.716 335.023 100.415 336.018 98.0116 336.145Z" fill="#57B894"/>
<path opacity="0.1" d="M94.8578 299.853C92.3032 300.16 89.8196 301.047 87.2571 301.223C84.6947 301.398 81.8799 300.714 80.2557 298.501C79.3885 297.307 78.9469 295.787 78.2137 294.488C77.5134 293.272 76.5547 292.268 75.4226 291.564C74.7549 293.118 74.3881 294.811 74.3459 296.534C74.3037 298.256 74.5871 299.969 75.1776 301.562C75.7681 303.154 76.6527 304.591 77.7738 305.778C78.895 306.965 80.2277 307.877 81.6856 308.453C83.1434 309.03 84.6938 309.259 86.2363 309.125C87.7787 308.992 89.2786 308.498 90.6389 307.678C91.9991 306.857 93.1892 305.727 94.132 304.36C95.0747 302.994 95.7491 301.423 96.1114 299.748C95.6961 299.765 95.2783 299.8 94.8578 299.853Z" fill="black"/>
<path opacity="0.1" d="M98.0116 336.145C96.1032 336.253 94.2023 335.807 92.495 334.851C90.7877 333.895 89.3323 332.462 88.2715 330.692C87.2106 328.922 86.5805 326.876 86.4428 324.753C86.3051 322.63 86.6645 320.504 87.4859 318.583C88.3639 319.24 89.119 320.081 89.7093 321.059C90.4978 322.385 90.9787 323.922 91.9012 325.133C93.6279 327.39 96.5688 328.128 99.2416 327.996C101.914 327.864 104.493 327.012 107.126 326.74C107.497 326.74 107.867 326.679 108.246 326.67C107.692 329.271 106.394 331.601 104.549 333.31C102.703 335.018 100.409 336.013 98.0116 336.145Z" fill="black"/>
<path opacity="0.1" d="M71.1494 356.051C69.258 356.159 67.3735 355.724 65.677 354.786C63.9806 353.849 62.5292 352.441 61.4625 350.698C60.3958 348.956 59.7496 346.937 59.5861 344.835C59.4226 342.734 59.7474 340.621 60.529 338.7C61.4484 339.366 62.2501 340.214 62.8944 341.203C63.7538 342.555 64.2899 344.109 65.2991 345.356C67.1677 347.674 70.3057 348.491 73.1284 348.412C75.951 348.333 78.5134 347.604 81.2336 347.367C80.5654 349.798 79.2369 351.939 77.4309 353.494C75.6249 355.049 73.4303 355.943 71.1494 356.051Z" fill="black"/>
<path opacity="0.1" d="M76.6133 379.979C75.4161 382.959 73.2051 385.287 70.4667 386.452C67.7283 387.616 64.6868 387.521 62.0113 386.188C59.3357 384.854 57.2453 382.392 56.1999 379.342C55.1545 376.292 55.2398 372.905 56.4369 369.925C57.3521 370.588 58.1711 371.402 58.8654 372.34C59.9219 373.762 60.6157 375.387 61.8299 376.73C64.0927 379.207 67.7433 380.243 70.9995 380.322C72.8752 380.332 74.7498 380.217 76.6133 379.979Z" fill="black"/>
<path d="M48.9783 398.147C48.9783 398.147 57.7142 397.893 60.3161 395.759C62.918 393.625 73.7197 391.184 74.3977 394.529C75.0758 397.875 87.5253 411.213 77.6619 411.266C67.7984 411.319 54.7576 409.51 52.1242 407.754C49.4908 405.997 48.9783 398.147 48.9783 398.147Z" fill="#656380"/>
<path opacity="0.2" d="M77.8748 410.098C68.0113 410.195 54.9626 408.395 52.337 406.586C50.3344 405.225 49.5381 400.351 49.27 398.112H48.9783C48.9783 398.112 49.5302 405.953 52.1321 407.771C54.7339 409.589 67.8142 411.354 77.6698 411.284C80.5161 411.284 81.5016 410.133 81.4464 408.465C81.0759 409.457 80.0272 410.081 77.8748 410.098Z" fill="black"/>
</g>
<defs>
<linearGradient id="paint0_linear" x1="256.804" y1="401.993" x2="256.804" y2="401.783" gradientUnits="userSpaceOnUse">
<stop stop-color="#808080" stop-opacity="0.25"/>
<stop offset="0.54" stop-color="#808080" stop-opacity="0.12"/>
<stop offset="1" stop-color="#808080" stop-opacity="0.1"/>
</linearGradient>
<clipPath id="clip0">
<rect width="928" height="434" fill="white"/>
</clipPath>
</defs>
</svg>
